# AST/ASF file generated using VICON BodyLanguage
# -----------------------------------------------
:version 1.10
:name VICON
:units
  mass 1.0
  length 0.45
  angle deg
:documentation
   .ast/.asf automatically generated from VICON data using
   VICON BodyBuilder and BodyLanguage model FoxedUp or BRILLIANT.MOD
:root
   order TX TY TZ RX RY RZ
   axis XYZ
   position 0 0 0  
   orientation 0 0 0 
:bonedata
  begin
     id 1 
     name lhipjoint
     direction 0.671379 -0.66392 0.329334 
     length 2.38647 
     axis 0 0 0  XYZ
  end
  begin
     id 2 
     name lfemur
     direction 0.34202 -0.939693 0  
     length 6.48179  
     axis 0 0 20  XYZ
    dof rx ry rz
    limits (-160.0 20.0)
           (-70.0 70.0)
           (-60.0 70.0)
  end
  begin
     id 3 
     name ltibia
     direction 0.34202 -0.939693 0   
     length 6.86524   
     axis 0 0 20   XYZ
    dof rx
    limits (-10.0 170.0)
  end
  begin
     id 4 
     name lfoot
     direction 0.204886 -0.562919 0.800715   
     length 1.73031   
     axis -90 7.62852e-016 20   XYZ
    dof rx rz
    limits (-45.0 90.0)
           (-70.0 20.0)
  end
  begin
     id 5 
     name ltoes
     direction 1.53548e-011 -4.21841e-011 1   
     length 0.828161   
     axis -90 7.62852e-016 20   XYZ
    dof rx
    limits (-90.0 20.0)
  end
  begin
     id 6 
     name rhipjoint
     direction -0.662732 -0.670855 0.332775   
     length 2.3618  
     axis 0 0 0  XYZ 
  end
  begin
     id 7 
     name rfemur
     direction -0.34202 -0.939693 0   
     length 6.3025   
     axis 0 0 -20   XYZ
    dof rx ry rz
    limits (-160.0 20.0)
           (-70.0 70.0)
           (-70.0 60.0)
  end
  begin
     id 8 
     name rtibia
     direction -0.34202 -0.939693 0   
     length 6.8732   
     axis 0 0 -20   XYZ
    dof rx
    limits (-10.0 170.0)
 end
 begin
     id 9 
     name rfoot
     direction -0.173856 -0.477665 0.861168   
     length 1.54784  
     axis -90 -7.62852e-016 -20   XYZ
    dof rx rz
    limits (-45.0 90.0)
           (-20.0 70.0)
  end
  begin
     id 10 
     name rtoes
     direction -1.53562e-011 -4.21802e-011 1   
     length 0.759618   
     axis -90 -7.62852e-016 -20   XYZ
    dof rx
    limits (-90.0 20.0)
  end
  begin
     id 11 
     name lowerback
     direction -0.0278357 0.999497 -0.0151789   
     length 1.97203   
     axis 0 0 0   XYZ
    dof rx ry rz
    limits (-20.0 45.0)
           (-30.0 30.0)
           (-30.0 30.0)
  end
  begin
     id 12 
     name upperback
     direction -0.00360622 0.997542 0.0699804   
     length 1.94709   
     axis 0 0 0   XYZ
    dof rx ry rz
    limits (-20.0 45.0)
           (-30.0 30.0)
           (-30.0 30.0)
  end
  begin
     id 13 
     name thorax
     direction 0.00907706 0.997048 0.0762461   
     length 1.95722   
     axis 0 0 0   XYZ
    dof rx ry rz
    limits (-20.0 45.0)
           (-30.0 30.0)
           (-30.0 30.0)
  end
  begin
     id 14 
     name lowerneck
     direction -0.0481835 0.99872 -0.0153927   
     length 1.63078   
     axis 0 0 0   XYZ
    dof rx ry rz
    limits (-20.0 45.0)
           (-30.0 30.0)
           (-30.0 30.0)
  end
  begin
     id 15 
     name upperneck
     direction 0.0859716 0.979226 -0.183644   
     length 1.62591   
     axis 0 0 0   XYZ
    dof rx ry rz
    limits (-20.0 45.0)
           (-30.0 30.0)
           (-30.0 30.0)
  end
  begin
     id 16
     name head
     direction 0.0324821 0.997629 -0.0606773  
     length 1.64811  
     axis 0 0 0   XYZ
    dof rx ry rz
    limits (-20.0 45.0)
           (-30.0 30.0)
           (-30.0 30.0)
  end
  begin
     id 17 
     name lclavicle
     direction 0.939609 0.311019 0.142835  
     length 3.70647  
     axis 0 0 0   XYZ
    dof ry rz
    limits (-20.0 10.0)
           (0.0 20.0)
  end
  begin
     id 18 
     name lhumerus
     direction 1 -4.48963e-011 -1.59838e-027   
     length 4.59207   
     axis 180 -30 -90   XYZ
    dof rx ry rz
    limits (-60.0 90.0)
           (-90.0 90.0)
           (-90.0 90.0)
  end
  begin
     id 19
     name lradius
     direction 1 -4.48957e-011 -1.3483e-026   
     length 2.98109   
     axis 180 -30 -90   XYZ
    dof rx
    limits (-10.0 170.0)
  end
  begin
     id 20
     name lwrist
     direction 1 -4.48954e-011 -3.11579e-026   
     length 1.49055   
     axis 2.00652e-014 90 90   XYZ
    dof ry
    limits (-180.0 0.0)
 end
  begin
     id 21 
     name lhand
     direction 1 -4.4911e-011 -6.23158e-026   
     length 0.480203   
     axis 3.97628e-014 90 90   XYZ
    dof rx rz
    limits (-90.0 90.0)
           (-45.0 45.0)
  end
  begin
     id 22 
     name lfingers
     direction 1 -4.48893e-011 -1.24632e-025   
     length 0.387152   
     axis 7.95256e-014 90 90   XYZ
    dof rx
    limits (0.0 90.0)
  end
  begin
     id 23
     name lthumb
     direction 0.707107 -6.35013e-011 0.707107   
     length 0.555875   
     axis -90 45 2.85299e-015   XYZ
    dof rx rz
    limits (-45.0 45.0)
           (-45.0 45.0)
  end
  begin
     id 24 
     name rclavicle
     direction -0.950396 0.30392 0.0661859   
     length 3.70894  
     axis 0 0 0   XYZ 
    dof ry rz
    limits (-10.0 20.0)
           (-20.0 0.0)
  end
  begin
     id 25 
     name rhumerus
     direction -1 -4.48957e-011 -2.96677e-027  
     length 4.76508   
     axis 180 30 90   XYZ
    dof rx ry rz
    limits (-90.0 60.0)
           (-90.0 90.0)
           (-90.0 90.0)
  end
  begin
     id 26 
     name rradius
     direction -1 -4.48974e-011 -1.44501e-026   
     length 2.78902   
     axis 180 30 90   XYZ
    dof rx
    limits (-10.0 170.0)
  end
  begin
     id 27 
     name rwrist
     direction -1 -4.48978e-011 -3.11579e-026   
     length 1.39451   
     axis 2.00652e-014 -90 -90   XYZ
    dof ry
    limits (-180.0 0.0)
  end
  begin
     id 28
     name rhand
     direction -1 -4.48956e-011 -6.23158e-026   
     length 0.721303   
     axis 3.97628e-014 -90 -90   XYZ
    dof rx rz
    limits (-90.0 90.0)
           (-45.0 45.0)
  end
  begin
     id 29
     name rfingers
     direction -1 -4.4899e-011 -1.24632e-025   
     length 0.581533   
     axis 7.95256e-014 -90 -90   XYZ
    dof rx
    limits (0.0 90.0)
  end
  begin
     id 30
     name rthumb
     direction -0.707107 -6.34911e-011 0.707107   
     length 0.834968   
     axis -90 -45 -2.85299e-015   XYZ
    dof rx rz
    limits (-45.0 45.0)
           (-45.0 45.0)
  end
:hierarchy
  begin
    root lhipjoint rhipjoint lowerback
    lhipjoint lfemur
    lfemur ltibia
    ltibia lfoot
    lfoot ltoes
    rhipjoint rfemur
    rfemur rtibia
    rtibia rfoot
    rfoot rtoes
    lowerback upperback
    upperback thorax
    thorax lowerneck lclavicle rclavicle
    lowerneck upperneck
    upperneck head
    lclavicle lhumerus
    lhumerus lradius
    lradius lwrist
    lwrist lhand lthumb
    lhand lfingers
    rclavicle rhumerus
    rhumerus rradius
    rradius rwrist
    rwrist rhand rthumb
    rhand rfingers
  end

#!OML:ASF I:\salsa\salsa 7_09\Patient 1\Session 1\dancerfemale.ASF
:FULLY-SPECIFIED
:DEGREES
1
root 26.2747 15.9762 -1.68602 2.21656 -70.8776 6.25097
lowerback -6.80227 4.95203 -2.381
upperback -4.93568 6.60747 0.0104261
thorax -1.57819 3.32838 1.66707
lowerneck -5.27798 7.84049 -5.8125
upperneck 8.21198 10.3546 7.99023
head 2.83864 5.28129 4.05975
rclavicle -9.6336e-014 -4.77083e-015
rhumerus -38.4708 -29.227 -76.1384
rradius 28.7814
rwrist 3.50649
rhand 8.05762 45.3923
rfingers 7.12502
rthumb 33.2818 18.4519
lclavicle -9.6336e-014 -4.77083e-015
lhumerus -46.8366 32.7027 71.0055
lradius 35.6618
lwrist -47.5509
lhand 25.2526 15.8553
lfingers 7.12502
lthumb 49.393 37.391
rfemur -12.6415 -4.94998 18.5948
rtibia 23.9248
rfoot -28.7371 -24.636
rtoes -1.90437
lfemur -21.6484 -8.60608 -20.8853
ltibia 33.44
lfoot -22.0989 -6.00533
ltoes -24.7543
2
root 26.2606 15.9713 -1.70054 1.87396 -71.2727 6.15011
lowerback -6.4116 5.05004 -2.43821
upperback -5.07464 6.72708 -0.167508
thorax -1.92874 3.391 1.47545
lowerneck -4.09006 6.0835 -6.62274
upperneck 6.87485 8.00733 8.63452
head 2.29519 4.09511 4.27986
rclavicle -2.32827e-014 7.95139e-016
rhumerus -38.4563 -29.2086 -76.6229
rradius 28.7466
rwrist 3.51819
rhand 8.08343 45.4936
rfingers 7.12502
rthumb 33.3064 18.5585
lclavicle -2.32827e-014 7.95139e-016
lhumerus -47.0558 30.9721 71.587
lradius 35.825
lwrist -43.2071
lhand 12.3688 33.6521
lfingers 7.12502
lthumb 37.3695 59.6202
rfemur -12.0639 -4.82292 18.6957
rtibia 23.8034
rfoot -28.6728 -24.3508
rtoes -2.38338
lfemur -20.928 -8.35822 -20.7902
ltibia 33.3148
lfoot -22.1938 -6.12948
ltoes -23.3008
3
root 26.2482 15.967 -1.71661 1.62547 -71.6851 5.99235
lowerback -6.04078 5.11292 -2.50591
upperback -5.2308 6.79811 -0.336002
thorax -2.28661 3.42919 1.29703
lowerneck -2.82628 4.34306 -6.70572
upperneck 5.75892 5.66611 8.45907
head 1.89574 2.89658 4.12068
rclavicle -3.04265e-014 -6.36111e-015
rhumerus -38.4776 -29.3154 -77.0812
rradius 28.7437
rwrist 3.63946
rhand 8.32605 45.4474
rfingers 7.12502
rthumb 33.537 18.562
lclavicle -3.04265e-014 -6.36111e-015
lhumerus -47.3612 29.5633 71.9863
lradius 35.9248
lwrist -39.0899
lhand 6.20969 37.1019
lfingers 7.12502
lthumb 31.5231 64.4024
rfemur -11.5464 -4.48614 18.8006
rtibia 23.6377
rfoot -28.6506 -24.2851
rtoes -2.33811
lfemur -20.3221 -8.02202 -20.6986
ltibia 33.2596
lfoot -22.3407 -6.13078
ltoes -22.9527
4
root 26.2394 15.9634 -1.73183 1.26241 -72.0676 5.9214
lowerback -5.62559 5.12367 -2.56529
upperback -5.35575 6.798 -0.507523
thorax -2.63248 3.43097 1.106
lowerneck -1.63513 2.68884 -6.93556
upperneck 4.74359 3.42411 8.70117
head 1.52981 1.7522 4.17333
rclavicle 5.33488e-014 9.44227e-015
rhumerus -38.4548 -29.4413 -77.5849
rradius 28.7413
rwrist 3.81757
rhand 8.57468 45.2929
rfingers 7.12502
rthumb 33.7732 18.4591
lclavicle 5.33488e-014 9.44227e-015
lhumerus -47.6416 28.3853 72.3335
lradius 35.9879
lwrist -35.0857
lhand 2.11001 38.3494
lfingers 7.12502
lthumb 27.6098 66.3438
rfemur -10.9899 -4.23023 18.8758
rtibia 23.4452
rfoot -28.5462 -24.2377
rtoes -2.34934
lfemur -19.7195 -7.71189 -20.6576
ltibia 33.2009
lfoot -22.4677 -6.08254
ltoes -22.9097
5
root 26.2336 15.9592 -1.74425 0.609927 -72.3932 6.09947
lowerback -5.14071 5.09294 -2.62161
upperback -5.45554 6.73952 -0.7132
thorax -2.98461 3.40239 0.87231
lowerneck -0.769116 1.06299 -7.61991
upperneck 4.16157 1.20198 9.47655
head 1.37647 0.62121 4.54989
rclavicle -3.61384e-014 3.98812e-015
rhumerus -38.3854 -29.5094 -78.1517
rradius 28.7352
rwrist 3.95485
rhand 8.76454 45.0555
rfingers 7.12502
rthumb 33.9536 18.2615
lclavicle -3.61384e-014 3.98812e-015
lhumerus -47.9073 27.3006 72.631
lradius 36.0441
lwrist -31.1582
lhand 0.23012 37.2539
lfingers 7.12502
lthumb 25.8108 65.5228
rfemur -10.3761 -4.14904 18.8654
rtibia 23.2388
rfoot -28.3004 -24.1712
rtoes -3.37392
lfemur -19.1139 -7.40701 -20.7319
ltibia 33.1802
lfoot -22.5446 -6.0492
ltoes -23.0517
6
root 26.2302 15.9496 -1.76598 -0.396693 -72.9651 6.12122
lowerback -4.10078 5.16155 -2.63928
upperback -5.5466 6.79851 -0.899563
thorax -3.64038 3.43388 0.583723
lowerneck 1.04977 -0.390667 -7.90234
upperneck 3.17928 -0.846694 10.5205
head 0.833111 -0.437881 4.44726
rclavicle -1.35671e-014 -1.05356e-014
rhumerus -38.6541 -29.5663 -78.6398
rradius 28.8065
rwrist 3.93369
rhand 9.06152 44.7643
rfingers 7.12502
rthumb 34.2357 18.0331
lclavicle -1.35671e-014 -1.05356e-014
lhumerus -48.3734 25.9614 72.8741
lradius 36.1369
lwrist -27.1352
lhand -2.54076 37.2367
lfingers 7.12502
lthumb 23.1546 65.8651
rfemur -9.2866 -3.81898 18.9252
rtibia 23.0825
rfoot -28.0866 -24.1304
rtoes -4.80521
lfemur -17.9392 -6.61168 -20.78
ltibia 33.1613
lfoot -22.6778 -6.19433
ltoes -23.5944
7
root 26.2208 15.9466 -1.76991 -0.510446 -72.9632 6.04055
lowerback -3.94 4.86326 -2.53222
upperback -5.56625 6.38974 -1.02967
thorax -3.70898 3.22261 0.377423
lowerneck 1.93415 -1.56004 -8.59899
upperneck 2.32837 -2.44971 11.3131
head 0.6067 -1.27449 4.80439
rclavicle -1.74682e-014 1.98785e-015
rhumerus -38.2017 -29.2733 -79.4579
rradius 28.7561
rwrist 4.02066
rhand 9.08066 44.7079
rfingers 7.12502
rthumb 34.2539 17.9809
lclavicle -1.74682e-014 1.98785e-015
lhumerus -48.5052 25.2956 73.3254
lradius 36.2776
lwrist -23.111
lhand -7.31042 39.0885
lfingers 7.12502
lthumb 18.5722 68.222
rfemur -9.00146 -3.90987 18.9899
rtibia 22.9916
rfoot -28.0104 -24.1581
rtoes -5.46524
lfemur -17.697 -6.57303 -20.7541
ltibia 33.1454
lfoot -22.6907 -6.20423
ltoes -23.7845
8
root 26.2121 15.9446 -1.77235 -0.954364 -73.0427 6.34136
lowerback -3.83917 4.62161 -2.57666
upperback -5.57362 6.05973 -1.16745
thorax -3.75285 3.05588 0.252314
lowerneck 2.73289 -2.61709 -9.17888
upperneck 1.61469 -3.90792 11.9907
head 0.439723 -2.03792 5.11426
rclavicle 2.08227e-014 2.127e-014
rhumerus -37.8398 -29.0682 -80.1538
rradius 28.8009
rwrist 4.12213
rhand 8.89892 44.7057
rfingers 7.12502
rthumb 34.0813 17.94
lclavicle 2.08227e-014 2.127e-014
lhumerus -48.5946 24.7107 73.8275
lradius 36.4432
lwrist -19.4646
lhand -12.216 41.1929
lfingers 7.12502
lthumb 13.8489 70.7118
rfemur -8.7636 -4.04578 18.9315
rtibia 22.9302
rfoot -27.8621 -24.0771
rtoes -6.20748
lfemur -17.4626 -6.62428 -20.8417
ltibia 33.1321
lfoot -22.7365 -6.07788
ltoes -23.7227
9
root 26.2058 15.9435 -1.77499 -1.45897 -73.3049 6.73853
lowerback -3.70934 4.44221 -2.61257
upperback -5.61111 5.80922 -1.32297
thorax -3.84522 2.92816 0.100588
lowerneck 3.26098 -3.53503 -9.95577
upperneck 1.23657 -5.20572 12.9686
head 0.428448 -2.71525 5.54719
rclavicle -1.31695e-015 -4.37326e-015
rhumerus -37.5915 -28.8364 -80.8183
rradius 28.9201
rwrist 4.04709
rhand 8.84093 44.6178
rfingers 7.12502
rthumb 34.0262 17.8399
lclavicle -1.31695e-015 -4.37326e-015
lhumerus -48.6424 24.1955 74.303
lradius 36.5623
lwrist -15.8839
lhand -18.2617 44.0188
lfingers 7.12502
lthumb 8.01778 73.8467
rfemur -8.65415 -4.04926 18.8372
rtibia 22.9498
rfoot -27.7352 -23.936
rtoes -7.15271
lfemur -17.2612 -6.57461 -20.9576
ltibia 33.1263
lfoot -22.8005 -5.82292
ltoes -23.898
10
root 26.2017 15.9435 -1.77833 -1.59826 -73.7753 6.8245
lowerback -3.66543 4.34408 -2.591
upperback -5.63608 5.67156 -1.40739
thorax -3.88157 2.85601 -0.00182077
lowerneck 3.57093 -4.30004 -10.9204
upperneck 1.07988 -6.32017 14.1666
head 0.530954 -3.29637 6.07385
rclavicle -1.39497e-013 -1.2921e-014
rhumerus -37.3689 -28.5265 -81.4263
rradius 29.0888
rwrist 3.73073
rhand 8.74145 44.5791
rfingers 7.12502
rthumb 33.9317 17.7802
lclavicle -1.39497e-013 -1.2921e-014
lhumerus -48.2896 22.7936 76.0048
lradius 36.6361
lwrist -8.57058
lhand -29.1426 47.1496
lfingers 7.12502
lthumb -2.48942 77.1148
rfemur -8.69154 -3.94693 18.845
rtibia 22.994
rfoot -27.6116 -23.7032
rtoes -7.60815
lfemur -17.1307 -6.38331 -20.9615
ltibia 33.1166
lfoot -22.8708 -5.47739
ltoes -24.1285
11
root 26.1986 15.9441 -1.7816 -1.62923 -74.4286 6.86614
lowerback -3.72508 4.3397 -2.61313
upperback -5.65725 5.66398 -1.43965
thorax -3.86915 2.85142 -0.0187695
lowerneck 3.94553 -4.97092 -11.5651
upperneck 0.812793 -7.29019 15.0004
head 0.571338 -3.80681 6.43705
rclavicle 3.18552e-014 4.37326e-015
rhumerus -37.1973 -28.2772 -81.892
rradius 29.3047
rwrist 3.28991
rhand 8.69448 44.5589
rfingers 7.12502
rthumb 33.8871 17.7501
lclavicle 3.18552e-014 4.37326e-015
lhumerus -48.788 24.2045 74.3886
lradius 36.0983
lwrist -12.288
lhand -25.1066 44.2767
lfingers 7.12502
lthumb 1.40864 74.2517
rfemur -8.83168 -3.80467 18.876
rtibia 23.0199
rfoot -27.447 -23.3411
rtoes -7.54995
lfemur -17.0636 -6.11535 -20.9324
ltibia 33.1217
lfoot -22.963 -5.05595
ltoes -24.1326
